# xmcd
#
# Track frame offsets:
#	150
#	29885
#	67524
#	99168
#	126903
#	163817
#	190469
#	208604
#	225923
#	241766
#	260578
#	293941
#	326245
#
# Disc length: 4735 seconds
#
# Revision: 2
# Processed by: cddbd v1.5.2PL0 Copyright (c) Steve Scherf et al.
# Submitted via: EasyCDDAExtractor 15.2.5.1
#
DISCID=b9127d0d
DTITLE=Various Artist - Sunshine House 2007 - CD1
DYEAR=2007
DGENRE=House
TTITLE0=Lutzenkrichen - Music for the Girls
TTITLE1=Tom Novy - My House
TTITLE2=DJ Dove - Unkind (Milk and Sugar Remix)
TTITLE3=Brown Sugar - Lift me up (Rich Vibes Remix)
TTITLE4=Hernandez - Let you down (sunloverz Remix)
TTITLE5=Patrick L vs Funkadelic - Footdays are gone
TTITLE6=Noir - Fuck me
TTITLE7=Ali Payami - Audio Driver
TTITLE8=Pavel Korbac - Euphoria
TTITLE9=Stereo Mutants - Amazing (Acid Dub)
TTITLE10=Delano and Crockett - Missing 
TTITLE11=Dutch Mafia - Break my Stride
TTITLE12=Tim Le El - Fuck me if you can
EXTD=
EXTT0=
EXTT1=
EXTT2=
EXTT3=
EXTT4=
EXTT5=
EXTT6=
EXTT7=
EXTT8=
EXTT9=
EXTT10=
EXTT11=
EXTT12=
PLAYORDER=
